#tb 0: 1/50
#media_type 0: video
#codec_id 0: rawvideo
#dimensions 0: 720x576
#sar 0: 16/15
0,         18,         18,        1,   622080, 0x77c0ca92
0,         19,         19,        1,   622080, 0x06d3a822
0,         20,         20,        1,   622080, 0xbe7fe646
0,         21,         21,        1,   622080, 0x542e891a
0,         22,         22,        1,   622080, 0x4384c5da
0,         23,         23,        1,   622080, 0xddd4c056
0,         24,         24,        1,   622080, 0x296b9168
0,         25,         25,        1,   622080, 0xf8e09812
0,         26,         26,        1,   622080, 0x96d5738e
0,         27,         27,        1,   622080, 0xac341d9b
0,         28,         28,        1,   622080, 0x769b9681
0,         29,         29,        1,   622080, 0xb5da1354
0,         30,         30,        1,   622080, 0x461d778d
0,         31,         31,        1,   622080, 0xd9dcc5a8
0,         32,         32,        1,   622080, 0xb88c584b
0,         33,         33,        1,   622080, 0x581b5727
0,         34,         34,        1,   622080, 0x7d7b1635
0,         35,         35,        1,   622080, 0xfc1b1a12
0,         36,         36,        1,   622080, 0x49c60dc0
0,         37,         37,        1,   622080, 0x1d537b22
0,         38,         38,        1,   622080, 0x498765a4
0,         39,         39,        1,   622080, 0xdd2e063a
0,         40,         40,        1,   622080, 0x0caed8f9
0,         41,         41,        1,   622080, 0xfb4a24aa
0,         42,         42,        1,   622080, 0x41d897d3
0,         43,         43,        1,   622080, 0xdd3f29ae
0,         44,         44,        1,   622080, 0x7aeb7c93
0,         45,         45,        1,   622080, 0x2410cbe2
0,         46,         46,        1,   622080, 0xa8bced40
0,         47,         47,        1,   622080, 0x5534f5ca
0,         48,         48,        1,   622080, 0x11de928c
0,         49,         49,        1,   622080, 0x82180322
0,         50,         50,        1,   622080, 0x64741075
0,         51,         51,        1,   622080, 0x5e048fc8
0,         52,         52,        1,   622080, 0x160f310e
0,         53,         53,        1,   622080, 0x4f6d2ce7
0,         54,         54,        1,   622080, 0x702d489c
0,         55,         55,        1,   622080, 0xa4b41315
0,         56,         56,        1,   622080, 0xaf2fb8aa
0,         57,         57,        1,   622080, 0x5ec09c25
0,         58,         58,        1,   622080, 0x575bae0f
0,         59,         59,        1,   622080, 0x94ecf775
0,         60,         60,        1,   622080, 0xfd68a990
0,         61,         61,        1,   622080, 0x15a7315c
0,         62,         62,        1,   622080, 0x8b513f66
0,         63,         63,        1,   622080, 0xeba9440a
0,         64,         64,        1,   622080, 0x0e6ae6c3
0,         65,         65,        1,   622080, 0x751484a6
0,         66,         66,        1,   622080, 0x3d12d8ab
0,         67,         67,        1,   622080, 0xdff3d681
0,         68,         68,        1,   622080, 0x45d0ac80
0,         69,         69,        1,   622080, 0xbe2df7f7
0,         70,         70,        1,   622080, 0xb18d4421
0,         71,         71,        1,   622080, 0xa49cb6de
0,         72,         72,        1,   622080, 0x2e81bd32
0,         73,         73,        1,   622080, 0xa47a5272
0,         74,         74,        1,   622080, 0x852cf6cf
0,         75,         75,        1,   622080, 0x892a014e
0,         76,         76,        1,   622080, 0xb055f0e5
